<svg width="35" height="24" viewBox="0 0 35 24" fill="none" xmlns="http://www.w3.org/2000/svg">
<rect width="35" height="24" rx="4" fill="#F1F6FF"/>
<path fill-rule="evenodd" clip-rule="evenodd" d="M16.5301 15.7581V12.7371H18.0893C18.7282 12.7371 19.2675 12.523 19.7071 12.1008L19.8126 11.9938C20.6156 11.1196 20.5629 9.75781 19.7071 8.94905C19.2792 8.52088 18.6931 8.28896 18.0893 8.30085H15.5864V15.7581H16.5301ZM16.5302 11.8213V9.21664H18.1131C18.4531 9.21664 18.7756 9.34747 19.0159 9.58534C19.526 10.0849 19.5377 10.9174 19.0453 11.4348C18.8049 11.6905 18.4649 11.8332 18.1131 11.8213H16.5302ZM24.2147 11.0542C23.8102 10.6796 23.2592 10.4893 22.5617 10.4893C21.6649 10.4893 20.9908 10.8223 20.5453 11.4824L21.3777 12.0116C21.6825 11.5597 22.0986 11.3337 22.6262 11.3337C22.9603 11.3337 23.2827 11.4586 23.5347 11.6846C23.7809 11.8986 23.9216 12.2079 23.9216 12.5349V12.755C23.5582 12.5528 23.101 12.4457 22.5383 12.4457C21.8818 12.4457 21.3542 12.6004 20.9615 12.9155C20.5688 13.2307 20.3695 13.647 20.3695 14.1763C20.3578 14.6579 20.5629 15.1158 20.9263 15.4251C21.2956 15.7581 21.7645 15.9246 22.3155 15.9246C22.9661 15.9246 23.482 15.6332 23.8747 15.0504H23.9157V15.7581H24.8184V12.6123C24.8184 11.9522 24.6191 11.4289 24.2147 11.0542ZM21.6533 14.8185C21.4599 14.6758 21.3426 14.4439 21.3426 14.1941C21.3426 13.9146 21.4716 13.6827 21.7237 13.4983C21.9816 13.314 22.3041 13.2188 22.6851 13.2188C23.2127 13.2129 23.6231 13.3318 23.9162 13.5697C23.9162 13.9741 23.758 14.3249 23.4472 14.6223C23.1658 14.9077 22.7848 15.0683 22.3861 15.0683C22.1223 15.0742 21.8644 14.985 21.6533 14.8185ZM26.8465 18L30 10.6558H28.9743L27.5147 14.319H27.4972L26.0025 10.6558H24.9767L27.0458 15.431L25.8735 18H26.8465Z" fill="#3C4043"/>
<path d="M13.2721 12.0829C13.2721 11.7916 13.2487 11.5002 13.2018 11.2147H9.2218V12.862H11.5019C11.4082 13.3912 11.1034 13.867 10.6579 14.1643V15.2347H12.0178C12.8149 14.4914 13.2721 13.3912 13.2721 12.0829Z" fill="#4285F4"/>
<path d="M9.22199 16.2695C10.3591 16.2695 11.3204 15.8889 12.0179 15.2347L10.6581 14.1643C10.2771 14.426 9.79056 14.5747 9.22199 14.5747C8.12001 14.5747 7.18802 13.8194 6.85392 12.8085H5.453V13.9146C6.16811 15.3596 7.62764 16.2695 9.22199 16.2695Z" fill="#34A853"/>
<path d="M6.85401 12.8085C6.67814 12.2792 6.67814 11.7024 6.85401 11.1672V10.067H5.45288C4.84904 11.2742 4.84904 12.7014 5.45288 13.9086L6.85401 12.8085Z" fill="#FBBC04"/>
<path d="M9.22199 9.40102C9.82573 9.38912 10.406 9.62105 10.8398 10.0433L12.0473 8.81824C11.2794 8.09273 10.2712 7.6943 9.22199 7.70619C7.62764 7.70619 6.16811 8.62199 5.453 10.0671L6.85392 11.1732C7.18802 10.1563 8.12001 9.40102 9.22199 9.40102Z" fill="#EA4335"/>
</svg>
