<svg width="35" height="24" viewBox="0 0 35 24" fill="none" xmlns="http://www.w3.org/2000/svg">
<rect width="35" height="24" rx="4" fill="#F3FBFF"/>
<path d="M15.2357 17.7689L15.4503 16.4064L14.9724 16.3953H12.6908L14.2764 6.34112C14.2813 6.31077 14.2973 6.28247 14.3207 6.26237C14.3441 6.24228 14.3741 6.2312 14.4052 6.2312H18.2525C19.5297 6.2312 20.4111 6.49698 20.8713 7.02157C21.087 7.26766 21.2244 7.52483 21.2909 7.80783C21.3606 8.1048 21.3619 8.45957 21.2938 8.89229L21.2888 8.92387V9.20113L21.5046 9.32337C21.6863 9.41974 21.8306 9.53008 21.9414 9.65641C22.126 9.86682 22.2454 10.1342 22.2958 10.4513C22.3479 10.7774 22.3306 11.1654 22.2454 11.6046C22.1469 12.11 21.9878 12.5501 21.7729 12.9102C21.5751 13.242 21.3233 13.5171 21.0243 13.7305C20.7388 13.9331 20.3996 14.0869 20.0161 14.1854C19.6445 14.2821 19.2208 14.331 18.7561 14.331H18.4567C18.2427 14.331 18.0346 14.4081 17.8715 14.5463C17.7078 14.6874 17.5994 14.8801 17.5663 15.091L17.5437 15.2136L17.1647 17.615L17.1475 17.7032C17.143 17.7312 17.1352 17.7451 17.1237 17.7546C17.1135 17.7631 17.0987 17.7689 17.0843 17.7689H15.2357Z" fill="#253B80"/>
<path d="M21.7079 8.95642C21.6965 9.02983 21.6834 9.10489 21.6686 9.182C21.1612 11.7869 19.4255 12.6868 17.2085 12.6868H16.0798C15.8087 12.6868 15.5803 12.8836 15.538 13.1511L14.96 16.8163L14.7964 17.8551C14.7689 18.0307 14.9043 18.189 15.0814 18.189H17.0835C17.3206 18.189 17.5219 18.0168 17.5592 17.783L17.5789 17.6812L17.9559 15.2892L17.9801 15.158C18.0169 14.9234 18.2187 14.7511 18.4558 14.7511H18.7552C20.6948 14.7511 22.2133 13.9636 22.6571 11.6848C22.8424 10.7328 22.7464 9.93792 22.2559 9.37888C22.1075 9.2103 21.9233 9.07044 21.7079 8.95642Z" fill="#179BD7"/>
<path d="M21.1761 8.74412C21.0986 8.72156 21.0186 8.70105 20.9365 8.68259C20.8541 8.66455 20.7696 8.64855 20.6827 8.63461C20.3783 8.58539 20.0449 8.56201 19.6876 8.56201H16.6722C16.5979 8.56201 16.5274 8.57882 16.4643 8.60918C16.3252 8.67603 16.2219 8.8077 16.1969 8.96888L15.5553 13.0319L15.5369 13.1504C15.5791 12.883 15.8076 12.6861 16.0787 12.6861H17.2074C19.4243 12.6861 21.1602 11.7858 21.6675 9.18134C21.6826 9.10423 21.6954 9.02918 21.7068 8.95577C21.5785 8.88768 21.4394 8.82943 21.2897 8.7798C21.2528 8.7675 21.2147 8.75561 21.1761 8.74412Z" fill="#222D65"/>
<path d="M16.1987 8.96919C16.2237 8.80799 16.3271 8.67633 16.4661 8.60989C16.5297 8.57953 16.5999 8.56272 16.674 8.56272H19.6896C20.0468 8.56272 20.3803 8.5861 20.6845 8.63532C20.7715 8.64926 20.8561 8.66526 20.9385 8.6833C21.0205 8.70177 21.1005 8.72227 21.178 8.74483C21.2165 8.75631 21.2547 8.7682 21.292 8.7801C21.4417 8.82973 21.5808 8.88838 21.7091 8.95606C21.8601 7.99342 21.7079 7.338 21.1875 6.7445C20.6137 6.09113 19.578 5.8114 18.2528 5.8114H14.4055C14.1347 5.8114 13.9039 6.00827 13.862 6.2761L12.2596 16.4336C12.228 16.6346 12.383 16.8159 12.5856 16.8159H14.9609L15.5572 13.0322L16.1987 8.96919Z" fill="#253B80"/>
</svg>
