<svg width="20" height="36" viewBox="0 0 20 36" fill="none" xmlns="http://www.w3.org/2000/svg">
<path d="M3.33331 20.4999V15.0833C3.33331 14.0887 3.7284 13.1349 4.43166 12.4316C5.13492 11.7283 6.08875 11.3333 7.08331 11.3333C8.07787 11.3333 9.0317 11.7283 9.73496 12.4316C10.4382 13.1349 10.8333 14.0887 10.8333 15.0833V20.9166C10.8333 21.4691 11.0528 21.999 11.4435 22.3897C11.8342 22.7804 12.3641 22.9999 12.9166 22.9999C13.4692 22.9999 13.9991 22.7804 14.3898 22.3897C14.7805 21.999 15 21.4691 15 20.9166V15.3583C14.4437 15.1617 13.9749 14.7748 13.6763 14.2659C13.3778 13.7571 13.2687 13.1591 13.3685 12.5776C13.4682 11.9961 13.7703 11.4686 14.2213 11.0884C14.6724 10.7081 15.2434 10.4995 15.8333 10.4995C16.4233 10.4995 16.9942 10.7081 17.4453 11.0884C17.8963 11.4686 18.1984 11.9961 18.2982 12.5776C18.3979 13.1591 18.2888 13.7571 17.9903 14.2659C17.6917 14.7748 17.2229 15.1617 16.6666 15.3583V20.9166C16.6666 21.9111 16.2716 22.865 15.5683 23.5682C14.865 24.2715 13.9112 24.6666 12.9166 24.6666C11.9221 24.6666 10.9683 24.2715 10.265 23.5682C9.56173 22.865 9.16665 21.9111 9.16665 20.9166V15.0833C9.16665 14.5307 8.94715 14.0008 8.55645 13.6101C8.16575 13.2194 7.63585 12.9999 7.08331 12.9999C6.53078 12.9999 6.00087 13.2194 5.61017 13.6101C5.21947 14.0008 4.99998 14.5307 4.99998 15.0833V20.4999H7.49998L4.16665 24.6666L0.833313 20.4999H3.33331ZM15.8333 13.8333C16.0543 13.8333 16.2663 13.7455 16.4226 13.5892C16.5788 13.4329 16.6666 13.2209 16.6666 12.9999C16.6666 12.7789 16.5788 12.5669 16.4226 12.4107C16.2663 12.2544 16.0543 12.1666 15.8333 12.1666C15.6123 12.1666 15.4003 12.2544 15.2441 12.4107C15.0878 12.5669 15 12.7789 15 12.9999C15 13.2209 15.0878 13.4329 15.2441 13.5892C15.4003 13.7455 15.6123 13.8333 15.8333 13.8333Z" fill="#5243C2"/>
</svg>
