<svg width="33" height="32" viewBox="0 0 33 32" fill="none" xmlns="http://www.w3.org/2000/svg">
<path d="M0.333374 16C0.333374 7.16344 7.49682 0 16.3334 0V0C25.1699 0 32.3334 7.16344 32.3334 16V16C32.3334 24.8366 25.1699 32 16.3334 32V32C7.49682 32 0.333374 24.8366 0.333374 16V16Z" fill="#F58F56"/>
<g clip-path="url(#clip0_1124_1942)">
<path d="M23.7748 9.52534C23.3655 9.04789 22.8198 8.77503 22.2059 8.84326H10.4058C9.17808 8.84326 8.15495 10.0028 8.35958 11.2306L9.99659 21.4619C10.133 22.485 11.0197 23.1671 12.0429 23.1671H20.6372C21.6603 23.1671 22.547 22.4168 22.6834 21.4619L24.3204 11.2306C24.3886 10.6167 24.184 10.0028 23.7748 9.52534ZM17.7724 17.7104C17.5678 17.5058 17.3631 17.3693 17.0903 17.3011L17.636 14.5728L16.2718 14.3L15.6579 17.2329C15.3851 17.3011 15.1123 17.5058 14.8394 17.7104L11.429 14.3682C14.0891 11.708 18.3863 11.708 21.0464 14.3682L17.7724 17.7104Z" fill="white"/>
</g>
<defs>
<clipPath id="clip0_1124_1942">
<rect width="16" height="16" fill="white" transform="translate(8.33337 8)"/>
</clipPath>
</defs>
</svg>
