<?xml version="1.0" standalone="no"?>
<!DOCTYPE svg PUBLIC "-//W3C//DTD SVG 20010904//EN"
 "http://www.w3.org/TR/2001/REC-SVG-20010904/DTD/svg10.dtd">
<svg version="1.0" xmlns="http://www.w3.org/2000/svg"
 width="256.000000pt" height="256.000000pt" viewBox="0 0 256.000000 256.000000"
 preserveAspectRatio="xMidYMid meet">
<metadata>
Created by potrace 1.14, written by Peter Selinger 2001-2017
</metadata>
<g transform="translate(0.000000,256.000000) scale(0.100000,-0.100000)"
fill="#000000" stroke="none">
<path d="M1129 2276 c-2 -2 -33 -6 -69 -9 -69 -7 -170 -27 -260 -52 -30 -9
-62 -18 -70 -20 -8 -2 -49 -18 -90 -35 -361 -150 -579 -408 -580 -687 0 -60 1
-62 28 -65 26 -3 27 -5 28 -68 1 -46 -3 -68 -13 -75 -9 -7 -13 -24 -11 -45 3
-32 6 -35 33 -33 l30 3 -35 -21 c-70 -42 -109 -107 -114 -190 -7 -110 66 -215
168 -239 26 -7 22 -8 -26 -9 l-57 -1 -3 -37 c-2 -26 -7 -37 -17 -35 -11 2 -13
-12 -9 -70 8 -125 70 -228 168 -279 l45 -24 1000 0 1000 0 49 29 c50 29 86 65
119 119 40 66 59 221 27 223 -44 3 -46 4 -45 37 0 30 -3 32 -40 38 -30 5 -33
7 -12 8 96 4 186 120 181 234 -3 79 -34 138 -96 184 l-33 23 0 103 c-1 103 2
130 14 123 3 -2 17 0 30 5 22 9 23 12 17 82 -6 87 -18 136 -47 201 -80 183
-264 348 -500 452 -94 42 -279 97 -364 109 -23 3 -52 8 -65 11 -29 6 -375 16
-381 10z m-889 -1540 c0 -2 -7 -7 -16 -10 -8 -3 -12 -2 -9 4 6 10 25 14 25 6z
m40 -2 c0 -8 -19 -13 -24 -6 -3 5 1 9 9 9 8 0 15 -2 15 -3z m640 0 c0 -8 -19
-13 -24 -6 -3 5 1 9 9 9 8 0 15 -2 15 -3z m400 0 c0 -8 -19 -13 -24 -6 -3 5 1
9 9 9 8 0 15 -2 15 -3z m160 0 c0 -8 -19 -13 -24 -6 -3 5 1 9 9 9 8 0 15 -2
15 -3z m160 0 c0 -8 -19 -13 -24 -6 -3 5 1 9 9 9 8 0 15 -2 15 -3z m160 0 c0
-8 -19 -13 -24 -6 -3 5 1 9 9 9 8 0 15 -2 15 -3z m240 0 c0 -8 -19 -13 -24 -6
-3 5 1 9 9 9 8 0 15 -2 15 -3z"/>
</g>
</svg>
